<svg width="48" height="49" viewBox="0 0 48 49" fill="none" xmlns="http://www.w3.org/2000/svg">
<circle cx="23.9042" cy="23.9042" r="23.9042" fill="white"/>
<rect x="15" y="6" width="21" height="34" rx="1" fill="#D9D9D9"/>
<path d="M27 1.85806C27 1.06148 27.886 0.584668 28.5508 1.02343L35.5508 5.64295C35.8312 5.82803 36 6.14158 36 6.47759V39.1945C36 39.4522 35.9006 39.6998 35.7225 39.886L28.7225 47.2002C28.0991 47.8515 27 47.4103 27 46.5088V1.85806Z" fill="black"/>
<path d="M24.0607 24.0607C24.6464 23.4749 24.6464 22.5251 24.0607 21.9393L14.5147 12.3934C13.9289 11.8076 12.9792 11.8076 12.3934 12.3934C11.8076 12.9792 11.8076 13.9289 12.3934 14.5147L20.8787 23L12.3934 31.4853C11.8076 32.0711 11.8076 33.0208 12.3934 33.6066C12.9792 34.1924 13.9289 34.1924 14.5147 33.6066L24.0607 24.0607ZM3 24.5H23V21.5H3V24.5Z" fill="black"/>
</svg>
