<svg width="156" height="120" viewBox="0 0 156 120" fill="none" xmlns="http://www.w3.org/2000/svg">
<path d="M5.43506 41.2529C4.23389 40.7842 3.25244 39.9492 2.49072 38.748C1.7583 37.5176 1.23096 36.0967 0.908691 34.4854C0.586426 32.8447 0.469238 31.0723 0.557129 29.168C0.64502 27.2637 0.894043 25.3594 1.3042 23.4551C1.74365 21.5508 2.32959 19.7344 3.06201 18.0059C3.79443 16.2773 4.65869 14.7832 5.65479 13.5234C6.65088 12.2344 7.76416 11.2676 8.99463 10.623C10.2544 9.94922 11.6021 9.72949 13.0376 9.96387C13.0962 10.2568 13.1987 10.7695 13.3452 11.502C13.521 12.2051 13.6821 12.9668 13.8286 13.7871C14.0044 14.6074 14.1509 15.3838 14.2681 16.1162C14.4146 16.8193 14.5171 17.3174 14.5757 17.6104C14.6343 17.9326 14.5317 18.2842 14.2681 18.665C14.0044 19.0459 13.6821 19.3535 13.3013 19.5879C12.9497 19.8223 12.5981 19.9395 12.2466 19.9395C11.895 19.9102 11.6606 19.6465 11.5435 19.1484C11.4556 18.8555 11.3823 18.4307 11.3237 17.874C11.2651 17.3174 11.1919 16.7314 11.104 16.1162C11.0161 15.501 10.8989 14.9297 10.7524 14.4023C10.606 13.8457 10.4009 13.4502 10.1372 13.2158C9.87354 12.9814 9.53662 12.9521 9.12646 13.1279C8.74561 13.2744 8.27686 13.7432 7.72021 14.5342C7.54443 14.7686 7.32471 15.0908 7.06104 15.501C6.82666 15.8818 6.57764 16.2773 6.31396 16.6875C6.07959 17.0977 5.87451 17.4639 5.69873 17.7861C5.52295 18.1084 5.43506 18.2988 5.43506 18.3574L3.1499 30.5742C2.88623 31.9219 2.90088 33.1377 3.19385 34.2217C3.48682 35.2764 3.95557 36.1846 4.6001 36.9463C5.24463 37.6787 6.03564 38.2646 6.97314 38.7041C7.91064 39.1143 8.89209 39.3486 9.91748 39.4072C10.9722 39.4365 12.0269 39.3047 13.0815 39.0117C14.1655 38.6895 15.1763 38.1621 16.1138 37.4297C16.4653 37.166 16.9194 36.668 17.4761 35.9355C18.062 35.2031 18.6772 34.3828 19.3218 33.4746C19.9663 32.5371 20.6401 31.5703 21.3433 30.5742C22.0464 29.5488 22.7056 28.6406 23.3208 27.8496C23.936 27.0293 24.478 26.3701 24.9468 25.8721C25.4155 25.374 25.7671 25.1543 26.0015 25.2129C26.4409 26.502 26.4116 27.8643 25.9136 29.2998C25.4448 30.7354 24.6538 32.1416 23.5405 33.5186C22.4565 34.8662 21.1382 36.126 19.5854 37.2979C18.062 38.4697 16.4653 39.4365 14.7954 40.1982C13.1255 40.96 11.4702 41.458 9.82959 41.6924C8.18896 41.9268 6.72412 41.7803 5.43506 41.2529ZM31.7583 40.4619C32.022 37.3564 32.0806 34.3828 31.9341 31.541C31.8169 28.6992 31.5825 25.8721 31.231 23.0596C30.8794 20.2471 30.4692 17.3906 30.0005 14.4902C29.5317 11.5898 29.1069 8.54297 28.7261 5.34961C28.7261 5.26172 28.7114 5.11523 28.6821 4.91016C28.6821 4.70508 28.6821 4.48535 28.6821 4.25098C28.6821 3.9873 28.6821 3.75293 28.6821 3.54785C28.7114 3.34277 28.7261 3.19629 28.7261 3.1084H30.2642C30.3521 3.63574 30.4839 4.45605 30.6597 5.56934C30.8647 6.68262 31.0845 7.94238 31.3188 9.34863C31.5825 10.7549 31.8462 12.2344 32.1099 13.7871C32.4028 15.3398 32.6665 16.8193 32.9009 18.2256C33.1646 19.6318 33.3989 20.8916 33.604 22.0049C33.8091 23.1182 33.9702 23.9385 34.0874 24.4658C34.0874 24.5537 34.1167 24.7148 34.1753 24.9492C34.2632 25.1543 34.3364 25.374 34.395 25.6084C34.4829 25.8428 34.5562 26.0771 34.6147 26.3115C34.7026 26.5166 34.7759 26.6631 34.8345 26.751C34.9224 26.5166 35.0981 26.1211 35.3618 25.5645C35.6548 24.9785 35.9624 24.3633 36.2847 23.7188C36.6069 23.0449 36.9146 22.4297 37.2075 21.873C37.5005 21.2871 37.7202 20.877 37.8667 20.6426C38.3354 19.793 38.936 19.0166 39.6685 18.3135C40.4009 17.6104 41.1187 17.1709 41.8218 16.9951C42.5249 16.8193 43.1401 16.9951 43.6675 17.5225C44.2241 18.0205 44.5757 19.0605 44.7222 20.6426C44.7515 21.0234 44.7808 21.6094 44.8101 22.4004C44.8687 23.1914 44.9272 24.0996 44.9858 25.125C45.0444 26.1211 45.103 27.1758 45.1616 28.2891C45.2202 29.4023 45.2642 30.457 45.2935 31.4531C45.3521 32.4492 45.396 33.3428 45.4253 34.1338C45.4839 34.9248 45.5132 35.5107 45.5132 35.8916C45.8354 36.3018 46.0698 36.7852 46.2163 37.3418C46.3921 37.8691 46.4067 38.3965 46.2603 38.9238C45.6743 39.1289 45.1763 39.1143 44.7661 38.8799C44.356 38.6455 44.0044 38.3232 43.7114 37.9131C43.4185 37.4736 43.1694 36.9902 42.9644 36.4629C42.7593 35.9355 42.5835 35.4814 42.437 35.1006C42.4956 33.9873 42.5396 32.7861 42.5688 31.4971C42.5981 30.208 42.5835 28.9043 42.5249 27.5859C42.4956 26.2383 42.4077 24.9053 42.2612 23.5869C42.144 22.2686 41.9536 21.0234 41.6899 19.8516C41.1626 19.5879 40.6646 19.6904 40.1958 20.1592C39.7563 20.6279 39.3315 21.3457 38.9214 22.3125C38.5405 23.25 38.1743 24.3633 37.8228 25.6523C37.4712 26.9414 37.1343 28.3037 36.812 29.7393C36.4897 31.1455 36.1675 32.5518 35.8452 33.958C35.5522 35.3643 35.2593 36.6387 34.9663 37.7812C34.7026 38.9238 34.4243 39.876 34.1313 40.6377C33.8677 41.3994 33.5894 41.8535 33.2964 42L31.7583 40.4619ZM49.3364 39.7148C49.2778 39.5977 49.2046 39.3779 49.1167 39.0557C49.0288 38.7041 48.9409 38.3232 48.853 37.9131C48.7651 37.5029 48.6919 37.1074 48.6333 36.7266C48.5747 36.3457 48.5454 36.0674 48.5454 35.8916V14.5342C48.5454 14.2412 48.6772 14.0361 48.9409 13.9189C49.2046 13.8018 49.4976 13.7432 49.8198 13.7432C50.1714 13.7139 50.479 13.7139 50.7427 13.7432C51.0356 13.7725 51.1968 13.7871 51.2261 13.7871V37.4297C51.2261 37.9277 51.3872 38.3379 51.7095 38.6602C52.0317 38.9824 52.4126 39.2461 52.8521 39.4512C53.2915 39.627 53.7456 39.7441 54.2144 39.8027C54.6831 39.832 55.0786 39.8027 55.4009 39.7148C55.811 40.3301 55.7964 40.8281 55.3569 41.209C54.9468 41.5605 54.3462 41.7656 53.5552 41.8242C52.7935 41.8535 51.9878 41.707 51.1382 41.3848C50.3179 41.0332 49.7173 40.4766 49.3364 39.7148ZM47.7983 6.8877C47.7983 6.03809 48.1353 5.49609 48.8091 5.26172C49.4829 4.99805 50.1714 5.02734 50.8745 5.34961V7.67871C50.7866 7.70801 50.6255 7.7373 50.3911 7.7666C50.186 7.7666 49.9517 7.7666 49.688 7.7666C49.4536 7.7666 49.2192 7.7666 48.9849 7.7666C48.7798 7.7373 48.6333 7.70801 48.5454 7.67871C48.4282 7.64941 48.2671 7.53223 48.062 7.32715C47.8862 7.12207 47.7983 6.97559 47.7983 6.8877ZM60.0151 41.2529C59.3706 40.8428 58.8872 40.2129 58.5649 39.3633C58.272 38.4844 58.0522 37.5762 57.9058 36.6387C57.7886 35.6719 57.73 34.7783 57.73 33.958V32.1123C57.73 31.79 57.7446 31.1455 57.7739 30.1787C57.8032 29.1826 57.8472 28.04 57.9058 26.751C57.9644 25.4326 58.0229 24.041 58.0815 22.5762C58.1401 21.082 58.1987 19.6904 58.2573 18.4014C58.3159 17.083 58.3599 15.9404 58.3892 14.9736C58.4478 14.0068 58.4771 13.3623 58.4771 13.04C58.4771 12.6006 58.4771 11.8389 58.4771 10.7549C58.5063 9.6709 58.521 8.52832 58.521 7.32715C58.521 6.09668 58.5063 4.93945 58.4771 3.85547C58.4771 2.77148 58.4771 2.00977 58.4771 1.57031C58.9165 1.24805 59.2974 1.02832 59.6196 0.911133C59.9126 0.793945 60.1763 0.779297 60.4106 0.867188C60.645 0.925781 60.7622 1.16016 60.7622 1.57031V37.4297C60.7622 37.6348 60.8208 37.8838 60.938 38.1768C61.0845 38.4404 61.2603 38.6748 61.4653 38.8799C61.6704 39.085 61.9048 39.2168 62.1685 39.2754C62.4614 39.3047 62.7544 39.1875 63.0474 38.9238L68.3647 34.3975C68.5112 35.0713 68.4966 35.7744 68.3208 36.5068C68.145 37.2393 67.8521 37.9277 67.4419 38.5723C67.061 39.2168 66.5776 39.8027 65.9917 40.3301C65.4058 40.8574 64.7759 41.2676 64.1021 41.5605C63.4282 41.8242 62.7397 41.9561 62.0366 41.9561C61.3335 41.9268 60.6597 41.6924 60.0151 41.2529ZM69.0679 39.7148C68.7163 39.041 68.4966 38.1182 68.4087 36.9463C68.3208 35.7451 68.3354 34.4121 68.4526 32.9473C68.5991 31.4824 68.8335 29.959 69.1558 28.377C69.5073 26.7949 69.9321 25.2861 70.4302 23.8506C70.9575 22.415 71.5435 21.1113 72.188 19.9395C72.8618 18.7383 73.5942 17.8154 74.3853 17.1709C75.1763 16.4971 76.0259 16.1748 76.9341 16.2041C77.8423 16.2041 78.7798 16.6729 79.7466 17.6104L81.2407 5.34961C81.27 5.23242 81.3872 5.08594 81.5923 4.91016C81.7974 4.70508 81.9438 4.60254 82.0317 4.60254C82.1489 4.60254 82.2954 4.63184 82.4712 4.69043C82.647 4.74902 82.8081 4.82227 82.9546 4.91016C83.1304 4.96875 83.2769 5.04199 83.394 5.12988C83.5112 5.21777 83.5698 5.29102 83.5698 5.34961V26.751C83.5698 28.3623 83.8481 29.7539 84.4048 30.9258C84.9614 32.0977 85.6938 32.9619 86.6021 33.5186C87.5103 34.0752 88.5503 34.2656 89.7222 34.0898C90.9233 33.8848 92.1685 33.2256 93.4575 32.1123C93.8677 32.1123 94.0581 32.3027 94.0288 32.6836C93.9995 33.0352 93.8237 33.46 93.5015 33.958C93.2085 34.4561 92.769 34.9688 92.1831 35.4961C91.6265 36.0234 90.9966 36.4629 90.2935 36.8145C89.6196 37.1367 88.8872 37.3125 88.0962 37.3418C87.3345 37.3711 86.5874 37.1367 85.855 36.6387C85.269 36.2578 84.7417 35.8037 84.2729 35.2764C83.8042 34.749 83.3794 34.1777 82.9985 33.5625C82.647 32.9473 82.3101 32.3174 81.9878 31.6729C81.6948 31.0283 81.4458 30.3984 81.2407 29.7832C81.1235 30.0469 80.9185 30.4424 80.6255 30.9697C80.3618 31.4678 80.0542 32.0537 79.7026 32.7275C79.3511 33.3721 78.9849 34.0605 78.604 34.793C78.2231 35.4961 77.8569 36.1846 77.5054 36.8584C77.1538 37.5029 76.8315 38.0889 76.5386 38.6162C76.2456 39.1143 76.0259 39.4805 75.8794 39.7148C75.4692 40.4766 74.9565 41.0479 74.3413 41.4287C73.7261 41.8096 73.0815 42 72.4077 42C71.7632 42 71.1333 41.8096 70.5181 41.4287C69.9321 41.0479 69.4487 40.4766 69.0679 39.7148ZM71.353 38.1768C71.3823 38.2646 71.4556 38.3818 71.5728 38.5283C71.6899 38.6455 71.8218 38.7627 71.9683 38.8799C72.1147 38.9678 72.2612 39.0264 72.4077 39.0557C72.5835 39.085 72.7446 39.041 72.8911 38.9238C74.3267 37.8398 75.4839 36.5508 76.3628 35.0566C77.271 33.5625 78.0034 31.9805 78.5601 30.3105C79.1167 28.6406 79.5562 26.9414 79.8784 25.2129C80.2007 23.4551 80.5083 21.7852 80.8013 20.2031C79.2192 19.998 77.8569 20.1299 76.7144 20.5986C75.6011 21.0381 74.6636 21.7119 73.9019 22.6201C73.1401 23.5283 72.5396 24.6123 72.1001 25.8721C71.6606 27.1318 71.353 28.4648 71.1772 29.8711C71.0015 31.248 70.9282 32.6689 70.9575 34.1338C71.0161 35.5693 71.1479 36.917 71.353 38.1768ZM95.1714 41.5166C94.7026 42.4834 94.3071 42.9668 93.9849 42.9668C93.6626 42.9961 93.3843 42.6738 93.1499 42C92.9448 41.3555 92.769 40.4326 92.6226 39.2314C92.5054 38.0303 92.4175 36.6973 92.3589 35.2324C92.3296 33.7676 92.3296 32.2295 92.3589 30.6182C92.3882 29.0068 92.4321 27.4541 92.4907 25.96C92.5786 24.4658 92.6812 23.1035 92.7983 21.873C92.9155 20.6133 93.0327 19.6318 93.1499 18.9287C93.2964 18.1963 93.4429 17.8008 93.5894 17.7422C93.7358 17.6836 93.8823 18.0791 94.0288 18.9287C94.9663 18.2256 95.9771 17.5664 97.061 16.9512C98.145 16.3066 99.2583 15.7793 100.401 15.3691C101.573 14.9297 102.745 14.6514 103.917 14.5342C105.118 14.417 106.275 14.5195 107.388 14.8418C107.505 15.2227 107.52 15.6621 107.432 16.1602C107.344 16.6582 107.066 16.9805 106.597 17.127C106.128 17.0391 105.513 16.9951 104.751 16.9951C103.99 16.9951 103.184 17.0537 102.334 17.1709C101.485 17.2881 100.635 17.4785 99.7856 17.7422C98.936 18.0059 98.1597 18.3574 97.4565 18.7969C96.7827 19.207 96.2261 19.7197 95.7866 20.335C95.3765 20.9209 95.1714 21.624 95.1714 22.4443V41.5166ZM118.506 41.2529C117.276 40.2861 116.294 39.1582 115.562 37.8691C114.859 36.5508 114.317 35.1445 113.936 33.6504C113.76 33.7969 113.497 33.958 113.145 34.1338C112.793 34.3096 112.427 34.4561 112.046 34.5732C111.695 34.6904 111.343 34.7783 110.992 34.8369C110.64 34.8662 110.376 34.8223 110.201 34.7051C110.054 34.5879 110.01 34.3975 110.069 34.1338C110.157 33.8408 110.435 33.416 110.904 32.8594C110.962 32.7715 111.138 32.5811 111.431 32.2881C111.753 31.9951 112.09 31.6875 112.442 31.3652C112.793 31.0137 113.116 30.6914 113.409 30.3984C113.702 30.0762 113.877 29.8711 113.936 29.7832C114.258 29.0508 114.449 28.2451 114.507 27.3662C114.595 26.4873 114.639 25.5791 114.639 24.6416C114.668 23.6748 114.727 22.7227 114.815 21.7852C114.903 20.8477 115.123 19.9688 115.474 19.1484C115.679 18.6797 116.06 18.1084 116.617 17.4346C117.203 16.7314 117.847 16.0576 118.55 15.4131C119.283 14.7686 120.015 14.1973 120.748 13.6992C121.509 13.1719 122.154 12.8496 122.681 12.7324C123.238 12.6152 123.633 12.7471 123.868 13.1279C124.131 13.5088 124.131 14.2412 123.868 15.3252C123.545 16.6143 123.047 17.874 122.374 19.1045C121.729 20.3057 121.055 21.5068 120.352 22.708C119.649 23.8799 118.975 25.0518 118.331 26.2236C117.715 27.3955 117.276 28.582 117.012 29.7832C116.866 30.4277 116.792 31.2188 116.792 32.1562C116.792 33.0645 116.895 33.9727 117.1 34.8809C117.305 35.7891 117.642 36.624 118.111 37.3857C118.58 38.1182 119.224 38.6309 120.044 38.9238C120.982 39.2754 121.919 39.3633 122.857 39.1875C123.794 39.0117 124.703 38.6748 125.582 38.1768C126.49 37.6787 127.354 37.0635 128.174 36.3311C128.995 35.5693 129.756 34.793 130.459 34.002C131.163 33.2109 131.792 32.4492 132.349 31.7168C132.906 30.9551 133.375 30.3105 133.755 29.7832L134.502 30.5742C134.708 30.75 134.576 31.248 134.107 32.0684C133.667 32.8887 133.008 33.8262 132.129 34.8809C131.28 35.9062 130.269 36.9609 129.097 38.0449C127.925 39.1289 126.709 40.0371 125.45 40.7695C124.219 41.502 122.989 41.9561 121.758 42.1318C120.557 42.3076 119.473 42.0146 118.506 41.2529ZM117.012 22.1367C116.983 22.2832 116.954 22.5469 116.924 22.9277C116.924 23.2793 116.924 23.6602 116.924 24.0703C116.924 24.4805 116.924 24.8613 116.924 25.2129C116.954 25.5645 116.983 25.8135 117.012 25.96C117.95 24.3486 118.829 22.6348 119.649 20.8184C120.469 19.002 121.114 17.1709 121.583 15.3252C120.909 15.5596 120.293 15.9258 119.737 16.4238C119.209 16.8926 118.755 17.4492 118.375 18.0938C117.994 18.709 117.686 19.3682 117.452 20.0713C117.247 20.7744 117.1 21.4629 117.012 22.1367ZM135.469 41.2529C135.499 40.8721 135.513 40.2129 135.513 39.2754V33.2988C135.513 32.3613 135.499 31.7021 135.469 31.3213C135.44 31.1455 135.381 30.7646 135.293 30.1787C135.235 29.5928 135.147 28.9043 135.03 28.1133C134.942 27.3223 134.839 26.4873 134.722 25.6084C134.605 24.7295 134.488 23.8945 134.371 23.1035C134.253 22.3125 134.151 21.624 134.063 21.0381C134.004 20.4521 133.96 20.0566 133.931 19.8516C133.873 19.4414 133.843 19.0166 133.843 18.5771C133.873 18.1377 133.96 17.7568 134.107 17.4346C134.253 17.1123 134.488 16.8926 134.81 16.7754C135.132 16.6289 135.601 16.6582 136.216 16.8633C136.246 17.4785 136.29 18.2109 136.348 19.0605C136.436 19.8809 136.539 20.7451 136.656 21.6533C136.773 22.5615 136.919 23.4551 137.095 24.334C137.271 25.2129 137.491 26.0186 137.754 26.751C138.135 25.667 138.501 24.7148 138.853 23.8945C139.234 23.0449 139.659 22.2686 140.127 21.5654C140.596 20.8623 141.124 20.2031 141.709 19.5879C142.295 18.9434 142.999 18.2842 143.819 17.6104C144.844 16.7607 145.694 16.4238 146.368 16.5996C147.071 16.7461 147.642 17.2441 148.082 18.0938C148.55 18.9141 148.931 19.9834 149.224 21.3018C149.517 22.6201 149.781 24.0264 150.015 25.5205C150.25 26.9854 150.484 28.4355 150.718 29.8711C150.982 31.2773 151.304 32.5078 151.685 33.5625C152.066 34.5879 152.535 35.3496 153.091 35.8477C153.677 36.3164 154.41 36.3311 155.289 35.8916C155.552 36.6826 155.582 37.2686 155.376 37.6494C155.201 38.001 154.878 38.2061 154.41 38.2646C153.97 38.2939 153.443 38.1768 152.828 37.9131C152.212 37.6201 151.597 37.2393 150.982 36.7705C150.396 36.2725 149.869 35.6865 149.4 35.0127C148.931 34.3389 148.609 33.6211 148.433 32.8594C148.316 32.332 148.213 31.4678 148.125 30.2666C148.038 29.0654 147.906 27.7764 147.73 26.3994C147.554 25.0225 147.276 23.6748 146.895 22.3564C146.543 21.0088 146.031 19.9395 145.357 19.1484L142.281 22.1367C142.193 22.2539 141.973 22.7812 141.622 23.7188C141.299 24.6562 140.933 25.7402 140.523 26.9707C140.113 28.1719 139.717 29.4023 139.336 30.6621C138.956 31.8926 138.677 32.8887 138.501 33.6504C138.443 33.9141 138.37 34.4121 138.282 35.1445C138.194 35.8477 138.106 36.6094 138.018 37.4297C137.93 38.25 137.857 39.0264 137.798 39.7588C137.769 40.4619 137.754 40.96 137.754 41.2529C137.491 41.7803 137.11 42.0439 136.612 42.0439C136.114 42.0439 135.733 41.7803 135.469 41.2529ZM51.3164 64.9844C50.9909 64.5026 50.7956 63.9688 50.7305 63.3828C50.6654 62.7839 50.6654 62.1589 50.7305 61.5078C50.7956 60.8568 50.8997 60.1992 51.043 59.5352C51.1862 58.8711 51.3099 58.2331 51.4141 57.6211C51.5182 56.9961 51.5768 56.4167 51.5898 55.8828C51.6029 55.3359 51.5117 54.8672 51.3164 54.4766C51.2122 54.2682 51.069 54.1706 50.8867 54.1836C50.7174 54.1836 50.5286 54.2096 50.3203 54.2617C50.125 54.3008 49.9232 54.3138 49.7148 54.3008C49.5195 54.2878 49.3438 54.1641 49.1875 53.9297C49.2005 53.8776 49.2526 53.8125 49.3438 53.7344C49.4219 53.6432 49.4805 53.5911 49.5195 53.5781C50.6914 53.4089 51.668 53.5326 52.4492 53.9492C53.2435 54.3529 53.875 54.9323 54.3438 55.6875C54.8125 56.4297 55.1315 57.2826 55.3008 58.2461C55.4831 59.2096 55.5482 60.1667 55.4961 61.1172C55.444 62.0677 55.2943 62.9531 55.0469 63.7734C54.7995 64.5807 54.487 65.2057 54.1094 65.6484C53.7318 66.0911 53.3021 66.2865 52.8203 66.2344C52.3385 66.1823 51.8372 65.7656 51.3164 64.9844ZM52.332 64.3008C52.3451 64.3398 52.3841 64.3919 52.4492 64.457C52.5143 64.5221 52.5794 64.5938 52.6445 64.6719C52.7227 64.75 52.7943 64.8216 52.8594 64.8867C52.9245 64.9388 52.9701 64.9714 52.9961 64.9844C53.4779 64.7109 53.8359 64.3398 54.0703 63.8711C54.3047 63.4023 54.4414 62.8815 54.4805 62.3086C54.5326 61.7357 54.5065 61.1367 54.4023 60.5117C54.3112 59.8737 54.1745 59.2617 53.9922 58.6758C53.8099 58.0898 53.5951 57.5495 53.3477 57.0547C53.1133 56.5599 52.8854 56.1562 52.6641 55.8438C52.651 56.013 52.625 56.2734 52.5859 56.625C52.5469 56.9766 52.5078 57.3737 52.4688 57.8164C52.4297 58.2591 52.3841 58.7279 52.332 59.2227C52.2799 59.7174 52.2279 60.1927 52.1758 60.6484C52.1367 61.0911 52.0977 61.4883 52.0586 61.8398C52.0195 62.1914 51.9935 62.4518 51.9805 62.6211C51.9674 62.7513 51.9674 62.901 51.9805 63.0703C52.0065 63.2266 52.0391 63.3828 52.0781 63.5391C52.1172 63.6953 52.1562 63.8451 52.1953 63.9883C52.2474 64.1185 52.293 64.2227 52.332 64.3008ZM60.6133 65.668C60.5872 65.6159 60.5547 65.5443 60.5156 65.4531C60.4896 65.349 60.457 65.2448 60.418 65.1406C60.3919 65.0234 60.3594 64.9193 60.3203 64.8281C60.2943 64.737 60.2812 64.6719 60.2812 64.6328C60.2682 64.4896 60.2487 64.2682 60.2227 63.9688C60.2096 63.6693 60.1901 63.3307 60.1641 62.9531C60.138 62.5755 60.112 62.1784 60.0859 61.7617C60.0729 61.332 60.0534 60.9284 60.0273 60.5508C60.0013 60.1732 59.9818 59.8346 59.9688 59.5352C59.9557 59.2357 59.9492 59.0143 59.9492 58.8711C59.9232 58.8581 59.8646 58.8516 59.7734 58.8516C59.6823 58.8516 59.6237 58.8581 59.5977 58.8711C59.4935 58.8971 59.3112 58.9427 59.0508 59.0078C58.8034 59.0729 58.5365 59.1445 58.25 59.2227L57.4297 59.418C57.1693 59.4831 56.9935 59.5286 56.9023 59.5547L56.043 58.6953L59.9492 57.5234L60.6133 50.0625C60.6654 49.5807 60.8151 49.1706 61.0625 48.832C61.3099 48.4935 61.6029 48.2266 61.9414 48.0312C62.2799 47.8359 62.625 47.7188 62.9766 47.6797C63.3411 47.6406 63.6536 47.6797 63.9141 47.7969C64.1745 47.901 64.3568 48.0898 64.4609 48.3633C64.5651 48.6237 64.5326 48.9622 64.3633 49.3789C64.168 49.5221 64.0117 49.5807 63.8945 49.5547C63.7904 49.5286 63.7057 49.4701 63.6406 49.3789C63.5885 49.2747 63.543 49.1576 63.5039 49.0273C63.4648 48.8971 63.4128 48.793 63.3477 48.7148C63.1003 48.4674 62.8789 48.3893 62.6836 48.4805C62.5013 48.5586 62.3385 48.7604 62.1953 49.0859C62.0521 49.3984 61.9284 49.7956 61.8242 50.2773C61.7201 50.7591 61.6354 51.2799 61.5703 51.8398C61.5052 52.3867 61.4531 52.9466 61.4141 53.5195C61.375 54.0794 61.3424 54.5938 61.3164 55.0625C61.3034 55.5312 61.2969 55.9284 61.2969 56.2539V56.8398C61.5573 56.918 61.8438 56.9115 62.1562 56.8203C62.4818 56.7292 62.8073 56.599 63.1328 56.4297C63.4714 56.2604 63.8034 56.0846 64.1289 55.9023C64.4544 55.707 64.7604 55.5573 65.0469 55.4531C65.3333 55.349 65.5872 55.3164 65.8086 55.3555C66.043 55.3945 66.2318 55.5573 66.375 55.8438L65.7305 56.5078L61.6484 58.207L61.2969 58.5391C61.2839 58.5651 61.2708 58.7474 61.2578 59.0859C61.2578 59.4245 61.2578 59.8281 61.2578 60.2969C61.2578 60.7656 61.2578 61.2474 61.2578 61.7422C61.2708 62.224 61.2839 62.6211 61.2969 62.9336C61.3099 63.0768 61.3555 63.2917 61.4336 63.5781C61.5247 63.8646 61.5964 64.1706 61.6484 64.4961C61.7135 64.8216 61.7266 65.1276 61.6875 65.4141C61.6615 65.6875 61.5312 65.8828 61.2969 66C61.1536 66.0651 61.0169 66.0521 60.8867 65.9609C60.7695 65.8698 60.6784 65.7721 60.6133 65.668ZM82.1562 64.6328C81.8698 64.151 81.6484 63.6107 81.4922 63.0117C81.3359 62.3997 81.2253 61.7747 81.1602 61.1367C81.0951 60.4987 81.0625 59.8672 81.0625 59.2422C81.0755 58.6172 81.0951 58.0443 81.1211 57.5234C80.9388 57.4714 80.7305 57.4844 80.4961 57.5625C80.2617 57.6406 80.0143 57.7448 79.7539 57.875C79.4935 57.9922 79.2266 58.1224 78.9531 58.2656C78.6797 58.4089 78.4258 58.513 78.1914 58.5781C77.957 58.6432 77.7422 58.6562 77.5469 58.6172C77.3516 58.5781 77.1953 58.4414 77.0781 58.207C76.9609 57.9857 76.9674 57.8099 77.0977 57.6797C77.2409 57.5495 77.4427 57.4518 77.7031 57.3867C77.9766 57.3086 78.2891 57.2565 78.6406 57.2305C78.9922 57.1914 79.3242 57.1458 79.6367 57.0938C79.9492 57.0417 80.2161 56.9766 80.4375 56.8984C80.6589 56.8073 80.776 56.6771 80.7891 56.5078L81.4727 49.0664C81.4857 48.9492 81.5443 48.8581 81.6484 48.793C81.7656 48.7279 81.8828 48.6953 82 48.6953C82.1302 48.6953 82.2409 48.7279 82.332 48.793C82.4362 48.8451 82.4883 48.9362 82.4883 49.0664V55.4922C82.6706 55.5312 82.8464 55.5312 83.0156 55.4922C83.1849 55.4401 83.3542 55.3815 83.5234 55.3164C83.6927 55.2513 83.8555 55.1992 84.0117 55.1602C84.181 55.1211 84.3568 55.1211 84.5391 55.1602C84.6172 55.3034 84.6042 55.4401 84.5 55.5703C84.3958 55.6875 84.2917 55.7786 84.1875 55.8438L83.8359 56.0586C83.6797 56.1497 83.5104 56.2539 83.3281 56.3711C83.1589 56.4753 82.9896 56.5729 82.8203 56.6641C82.6641 56.7552 82.5534 56.8138 82.4883 56.8398C82.4753 57.0221 82.4622 57.3411 82.4492 57.7969C82.4492 58.2396 82.4492 58.7148 82.4492 59.2227C82.4492 59.7305 82.4492 60.2122 82.4492 60.668C82.4622 61.1107 82.4753 61.4232 82.4883 61.6055C82.5404 62.2174 82.6576 62.7773 82.8398 63.2852C83.0221 63.793 83.2695 64.1901 83.582 64.4766C83.8945 64.763 84.2656 64.9062 84.6953 64.9062C85.138 64.9062 85.6523 64.7044 86.2383 64.3008C86.3294 64.6003 86.3229 64.8672 86.2188 65.1016C86.1146 65.3359 85.9453 65.5247 85.7109 65.668C85.4766 65.7982 85.1966 65.8828 84.8711 65.9219C84.5456 65.9609 84.2135 65.9414 83.875 65.8633C83.5495 65.7852 83.2305 65.6484 82.918 65.4531C82.6055 65.2448 82.3516 64.9714 82.1562 64.6328ZM87.293 65.3164C87.4102 63.9362 87.4362 62.6146 87.3711 61.3516C87.319 60.0885 87.2148 58.832 87.0586 57.582C86.9023 56.332 86.7201 55.0625 86.5117 53.7734C86.3034 52.4844 86.1146 51.1302 85.9453 49.7109C85.9453 49.6719 85.9388 49.6068 85.9258 49.5156C85.9258 49.4245 85.9258 49.3268 85.9258 49.2227C85.9258 49.1055 85.9258 49.0013 85.9258 48.9102C85.9388 48.819 85.9453 48.7539 85.9453 48.7148H86.6289C86.668 48.9492 86.7266 49.3138 86.8047 49.8086C86.8958 50.3034 86.9935 50.8633 87.0977 51.4883C87.2148 52.1133 87.332 52.7708 87.4492 53.4609C87.5794 54.151 87.6966 54.8086 87.8008 55.4336C87.918 56.0586 88.0221 56.6185 88.1133 57.1133C88.2044 57.6081 88.276 57.9727 88.3281 58.207C88.3281 58.2461 88.3411 58.3177 88.3672 58.4219C88.4062 58.513 88.4388 58.6107 88.4648 58.7148C88.5039 58.819 88.5365 58.9232 88.5625 59.0273C88.6016 59.1185 88.6341 59.1836 88.6602 59.2227C88.6992 59.1185 88.7773 58.9427 88.8945 58.6953C89.0247 58.4349 89.1615 58.1615 89.3047 57.875C89.4479 57.5755 89.5846 57.3021 89.7148 57.0547C89.8451 56.7943 89.9427 56.612 90.0078 56.5078C90.2161 56.1302 90.4831 55.7852 90.8086 55.4727C91.1341 55.1602 91.4531 54.9648 91.7656 54.8867C92.0781 54.8086 92.3516 54.8867 92.5859 55.1211C92.8333 55.3424 92.9896 55.8047 93.0547 56.5078C93.0677 56.6771 93.0807 56.9375 93.0938 57.2891C93.1198 57.6406 93.1458 58.0443 93.1719 58.5C93.1979 58.9427 93.224 59.4115 93.25 59.9062C93.276 60.401 93.2956 60.8698 93.3086 61.3125C93.3346 61.7552 93.3542 62.1523 93.3672 62.5039C93.3932 62.8555 93.4062 63.1159 93.4062 63.2852C93.5495 63.4674 93.6536 63.6823 93.7188 63.9297C93.7969 64.1641 93.8034 64.3984 93.7383 64.6328C93.4779 64.724 93.2565 64.7174 93.0742 64.6133C92.8919 64.5091 92.7357 64.3659 92.6055 64.1836C92.4753 63.9883 92.3646 63.7734 92.2734 63.5391C92.1823 63.3047 92.1042 63.1029 92.0391 62.9336C92.0651 62.4388 92.0846 61.9049 92.0977 61.332C92.1107 60.7591 92.1042 60.1797 92.0781 59.5938C92.0651 58.9948 92.026 58.4023 91.9609 57.8164C91.9089 57.2305 91.8242 56.6771 91.707 56.1562C91.4727 56.0391 91.2513 56.0846 91.043 56.293C90.8477 56.5013 90.6589 56.8203 90.4766 57.25C90.3073 57.6667 90.1445 58.1615 89.9883 58.7344C89.832 59.3073 89.6823 59.9128 89.5391 60.5508C89.3958 61.1758 89.2526 61.8008 89.1094 62.4258C88.9792 63.0508 88.849 63.6172 88.7188 64.125C88.6016 64.6328 88.4779 65.056 88.3477 65.3945C88.2305 65.7331 88.1068 65.9349 87.9766 66L87.293 65.3164ZM98.4844 65.668C97.9375 65.2383 97.5013 64.737 97.1758 64.1641C96.8633 63.5781 96.6224 62.9531 96.4531 62.2891C96.375 62.3542 96.2578 62.4258 96.1016 62.5039C95.9453 62.582 95.7826 62.6471 95.6133 62.6992C95.457 62.7513 95.3008 62.7904 95.1445 62.8164C94.9883 62.8294 94.8711 62.8099 94.793 62.7578C94.7279 62.7057 94.7083 62.6211 94.7344 62.5039C94.7734 62.3737 94.8971 62.1849 95.1055 61.9375C95.1315 61.8984 95.2096 61.8138 95.3398 61.6836C95.4831 61.5534 95.6328 61.4167 95.7891 61.2734C95.9453 61.1172 96.0885 60.974 96.2188 60.8438C96.349 60.7005 96.4271 60.6094 96.4531 60.5703C96.5964 60.2448 96.681 59.8867 96.707 59.4961C96.7461 59.1055 96.7656 58.7018 96.7656 58.2852C96.7786 57.8555 96.8047 57.4323 96.8438 57.0156C96.8828 56.599 96.9805 56.2083 97.1367 55.8438C97.2279 55.6354 97.3971 55.3815 97.6445 55.082C97.9049 54.7695 98.1914 54.4701 98.5039 54.1836C98.8294 53.8971 99.1549 53.6432 99.4805 53.4219C99.819 53.1875 100.105 53.0443 100.34 52.9922C100.587 52.9401 100.763 52.9987 100.867 53.168C100.984 53.3372 100.984 53.6628 100.867 54.1445C100.724 54.7174 100.503 55.2773 100.203 55.8242C99.9167 56.3581 99.6172 56.8919 99.3047 57.4258C98.9922 57.9466 98.6927 58.4674 98.4062 58.9883C98.1328 59.5091 97.9375 60.0365 97.8203 60.5703C97.7552 60.8568 97.7227 61.2083 97.7227 61.625C97.7227 62.0286 97.7682 62.4323 97.8594 62.8359C97.9505 63.2396 98.1003 63.6107 98.3086 63.9492C98.5169 64.2747 98.8034 64.5026 99.168 64.6328C99.5846 64.7891 100.001 64.8281 100.418 64.75C100.835 64.6719 101.238 64.5221 101.629 64.3008C102.033 64.0794 102.417 63.806 102.781 63.4805C103.146 63.1419 103.484 62.7969 103.797 62.4453C104.109 62.0938 104.389 61.7552 104.637 61.4297C104.884 61.0911 105.092 60.8047 105.262 60.5703L105.594 60.9219C105.685 61 105.626 61.2214 105.418 61.5859C105.223 61.9505 104.93 62.3672 104.539 62.8359C104.161 63.2917 103.712 63.7604 103.191 64.2422C102.671 64.724 102.13 65.1276 101.57 65.4531C101.023 65.7786 100.477 65.9805 99.9297 66.0586C99.3958 66.1367 98.9141 66.0065 98.4844 65.668ZM97.8203 57.1719C97.8073 57.237 97.7943 57.3542 97.7812 57.5234C97.7812 57.6797 97.7812 57.849 97.7812 58.0312C97.7812 58.2135 97.7812 58.3828 97.7812 58.5391C97.7943 58.6953 97.8073 58.806 97.8203 58.8711C98.237 58.1549 98.6276 57.3932 98.9922 56.5859C99.3568 55.7786 99.6432 54.9648 99.8516 54.1445C99.5521 54.2487 99.2786 54.4115 99.0312 54.6328C98.7969 54.8411 98.5951 55.0885 98.4258 55.375C98.2565 55.6484 98.1198 55.9414 98.0156 56.2539C97.9245 56.5664 97.8594 56.8724 97.8203 57.1719ZM57.21 116.838C55.6605 116.245 54.3389 115.311 53.2451 114.035C52.1969 112.714 51.2855 111.278 50.5107 109.729C49.7816 108.133 49.1891 106.493 48.7334 104.807C48.3232 103.12 47.9814 101.594 47.708 100.227C47.5713 99.4974 47.389 98.3581 47.1611 96.8086C46.9788 95.2135 46.751 93.459 46.4775 91.5449C46.2497 89.5853 45.999 87.5345 45.7256 85.3926C45.4977 83.2051 45.2699 81.1543 45.042 79.2402L44.4268 73.9766C44.2445 72.4271 44.1305 71.2878 44.085 70.5586L35.8818 103.781L35.4717 104.533C35.2894 104.943 35.016 105.399 34.6514 105.9C34.3324 106.356 33.9678 106.812 33.5576 107.268C33.1475 107.723 32.7145 108.065 32.2588 108.293C31.8486 108.475 31.4385 108.521 31.0283 108.43C30.6182 108.339 30.2536 107.951 29.9346 107.268L12.0928 71.7207L7.37598 107.268C7.28483 107.906 7.03418 108.316 6.62402 108.498C6.21387 108.635 5.78092 108.635 5.3252 108.498C4.91504 108.316 4.52767 108.02 4.16309 107.609C3.84408 107.199 3.73014 106.721 3.82129 106.174L9.76855 62.2188C9.76855 62.0365 9.92806 61.8086 10.2471 61.5352C10.5661 61.2617 10.9307 61.0339 11.3408 60.8516C11.751 60.6693 12.1383 60.5781 12.5029 60.5781C12.9131 60.5326 13.1865 60.6693 13.3232 60.9883L31.9854 102.482L42.9229 60.9883C42.9684 60.8516 43.2191 60.5098 43.6748 59.9629C44.1305 59.3704 44.6318 58.8236 45.1787 58.3223C45.7256 57.821 46.2497 57.4564 46.751 57.2285C47.2523 56.9551 47.5713 57.0462 47.708 57.502L48.8701 62.2188C49.0068 65.3177 49.1208 68.918 49.2119 73.0195C49.3031 77.1211 49.5537 81.3366 49.9639 85.666C50.374 89.9954 51.0348 94.2565 51.9463 98.4492C52.8577 102.642 54.2249 106.379 56.0479 109.66C56.1846 109.888 56.4124 110.207 56.7314 110.617C57.0505 110.982 57.3923 111.346 57.7568 111.711C58.1214 112.076 58.486 112.417 58.8506 112.736C59.2152 113.01 59.4658 113.169 59.6025 113.215C60.0583 113.397 60.6735 113.42 61.4482 113.283C62.223 113.146 63.0205 113.055 63.8408 113.01C64.6611 112.919 65.4359 112.964 66.165 113.146C66.9398 113.283 67.5094 113.716 67.874 114.445C68.2386 115.174 68.2614 115.767 67.9424 116.223C67.6689 116.633 67.1904 116.952 66.5068 117.18C65.8232 117.408 65.0257 117.544 64.1143 117.59C63.2028 117.635 62.2913 117.635 61.3799 117.59C60.4684 117.499 59.6253 117.385 58.8506 117.248C58.0758 117.111 57.529 116.975 57.21 116.838ZM77.1709 114.445C76.0316 112.759 75.348 110.891 75.1201 108.84C74.8923 106.743 74.8923 104.556 75.1201 102.277C75.348 99.9987 75.7126 97.6973 76.2139 95.373C76.7152 93.0488 77.1481 90.8158 77.5127 88.6738C77.8773 86.4863 78.0824 84.4583 78.1279 82.5898C78.1735 80.6758 77.8545 79.0352 77.1709 77.668C76.8063 76.9388 76.305 76.597 75.667 76.6426C75.0745 76.6426 74.4137 76.7337 73.6846 76.916C73.001 77.0527 72.2946 77.0983 71.5654 77.0527C70.8818 77.0072 70.2666 76.5742 69.7197 75.7539C69.7653 75.5716 69.9476 75.3438 70.2666 75.0703C70.54 74.7513 70.7451 74.569 70.8818 74.5234C74.9834 73.931 78.4014 74.3639 81.1357 75.8223C83.9157 77.235 86.126 79.263 87.7666 81.9062C89.4072 84.5039 90.5238 87.4889 91.1162 90.8613C91.7542 94.2337 91.9821 97.5833 91.7998 100.91C91.6175 104.237 91.0934 107.336 90.2275 110.207C89.3617 113.033 88.2679 115.22 86.9463 116.77C85.6247 118.319 84.1208 119.003 82.4346 118.82C80.7484 118.638 78.9938 117.18 77.1709 114.445ZM80.7256 112.053C80.7712 112.189 80.9079 112.372 81.1357 112.6C81.3636 112.827 81.5915 113.078 81.8193 113.352C82.0928 113.625 82.3434 113.876 82.5713 114.104C82.7992 114.286 82.9587 114.4 83.0498 114.445C84.736 113.488 85.9893 112.189 86.8096 110.549C87.6299 108.908 88.1084 107.085 88.2451 105.08C88.4274 103.075 88.3363 100.979 87.9717 98.791C87.6527 96.5579 87.1742 94.416 86.5361 92.3652C85.8981 90.3145 85.1462 88.4232 84.2803 86.6914C83.46 84.9596 82.6624 83.5469 81.8877 82.4531C81.8421 83.0456 81.751 83.957 81.6143 85.1875C81.4775 86.418 81.3408 87.8079 81.2041 89.3574C81.0674 90.9069 80.9079 92.5475 80.7256 94.2793C80.5433 96.0111 80.361 97.6745 80.1787 99.2695C80.042 100.819 79.9053 102.209 79.7686 103.439C79.6318 104.67 79.5407 105.581 79.4951 106.174C79.4495 106.63 79.4495 107.154 79.4951 107.746C79.5863 108.293 79.7002 108.84 79.8369 109.387C79.9736 109.934 80.1104 110.458 80.2471 110.959C80.4294 111.415 80.5889 111.779 80.7256 112.053ZM100.687 114.445C99.5472 112.759 98.8636 110.891 98.6357 108.84C98.4079 106.743 98.4079 104.556 98.6357 102.277C98.8636 99.9987 99.2282 97.6973 99.7295 95.373C100.231 93.0488 100.664 90.8158 101.028 88.6738C101.393 86.4863 101.598 84.4583 101.644 82.5898C101.689 80.6758 101.37 79.0352 100.687 77.668C100.322 76.9388 99.8206 76.597 99.1826 76.6426C98.5902 76.6426 97.9294 76.7337 97.2002 76.916C96.5166 77.0527 95.8102 77.0983 95.0811 77.0527C94.3975 77.0072 93.7822 76.5742 93.2354 75.7539C93.2809 75.5716 93.4632 75.3438 93.7822 75.0703C94.0557 74.7513 94.2607 74.569 94.3975 74.5234C98.499 73.931 101.917 74.3639 104.651 75.8223C107.431 77.235 109.642 79.263 111.282 81.9062C112.923 84.5039 114.039 87.4889 114.632 90.8613C115.27 94.2337 115.498 97.5833 115.315 100.91C115.133 104.237 114.609 107.336 113.743 110.207C112.877 113.033 111.784 115.22 110.462 116.77C109.14 118.319 107.636 119.003 105.95 118.82C104.264 118.638 102.509 117.18 100.687 114.445ZM104.241 112.053C104.287 112.189 104.424 112.372 104.651 112.6C104.879 112.827 105.107 113.078 105.335 113.352C105.608 113.625 105.859 113.876 106.087 114.104C106.315 114.286 106.474 114.4 106.565 114.445C108.252 113.488 109.505 112.189 110.325 110.549C111.146 108.908 111.624 107.085 111.761 105.08C111.943 103.075 111.852 100.979 111.487 98.791C111.168 96.5579 110.69 94.416 110.052 92.3652C109.414 90.3145 108.662 88.4232 107.796 86.6914C106.976 84.9596 106.178 83.5469 105.403 82.4531C105.358 83.0456 105.267 83.957 105.13 85.1875C104.993 86.418 104.856 87.8079 104.72 89.3574C104.583 90.9069 104.424 92.5475 104.241 94.2793C104.059 96.0111 103.877 97.6745 103.694 99.2695C103.558 100.819 103.421 102.209 103.284 103.439C103.147 104.67 103.056 105.581 103.011 106.174C102.965 106.63 102.965 107.154 103.011 107.746C103.102 108.293 103.216 108.84 103.353 109.387C103.489 109.934 103.626 110.458 103.763 110.959C103.945 111.415 104.104 111.779 104.241 112.053ZM122.083 116.838C122.129 116.245 122.151 115.22 122.151 113.762V104.465C122.151 103.007 122.129 101.981 122.083 101.389C122.037 101.115 121.946 100.523 121.81 99.6113C121.718 98.6999 121.582 97.6289 121.399 96.3984C121.263 95.168 121.103 93.8691 120.921 92.502C120.739 91.1348 120.556 89.8359 120.374 88.6055C120.192 87.375 120.032 86.304 119.896 85.3926C119.804 84.4811 119.736 83.8659 119.69 83.5469C119.599 82.9089 119.554 82.248 119.554 81.5645C119.599 80.8809 119.736 80.2884 119.964 79.7871C120.192 79.2858 120.556 78.944 121.058 78.7617C121.559 78.5339 122.288 78.5794 123.245 78.8984C123.291 79.8555 123.359 80.9948 123.45 82.3164C123.587 83.5924 123.746 84.9368 123.929 86.3496C124.111 87.7624 124.339 89.1523 124.612 90.5195C124.886 91.8867 125.228 93.14 125.638 94.2793C126.23 92.5931 126.8 91.112 127.347 89.8359C127.939 88.5143 128.6 87.3066 129.329 86.2129C130.058 85.1191 130.879 84.0938 131.79 83.1367C132.701 82.1341 133.795 81.1087 135.071 80.0605C136.666 78.7389 137.988 78.2148 139.036 78.4883C140.13 78.7161 141.019 79.4909 141.702 80.8125C142.431 82.0885 143.024 83.752 143.479 85.8027C143.935 87.8535 144.345 90.041 144.71 92.3652C145.075 94.6439 145.439 96.8997 145.804 99.1328C146.214 101.32 146.715 103.234 147.308 104.875C147.9 106.47 148.629 107.655 149.495 108.43C150.407 109.159 151.546 109.182 152.913 108.498C153.323 109.729 153.369 110.64 153.05 111.232C152.776 111.779 152.275 112.098 151.546 112.189C150.862 112.235 150.042 112.053 149.085 111.643C148.128 111.187 147.171 110.594 146.214 109.865C145.302 109.09 144.482 108.179 143.753 107.131C143.024 106.083 142.522 104.966 142.249 103.781C142.067 102.961 141.907 101.617 141.771 99.748C141.634 97.8796 141.429 95.8743 141.155 93.7324C140.882 91.5905 140.449 89.4941 139.856 87.4434C139.31 85.347 138.512 83.6836 137.464 82.4531L132.679 87.1016C132.542 87.2839 132.2 88.1042 131.653 89.5625C131.152 91.0208 130.582 92.707 129.944 94.6211C129.306 96.4896 128.691 98.4036 128.099 100.363C127.506 102.277 127.073 103.827 126.8 105.012C126.709 105.422 126.595 106.197 126.458 107.336C126.321 108.43 126.185 109.615 126.048 110.891C125.911 112.167 125.797 113.374 125.706 114.514C125.66 115.607 125.638 116.382 125.638 116.838C125.228 117.658 124.635 118.068 123.86 118.068C123.086 118.068 122.493 117.658 122.083 116.838Z" fill="white"/>
</svg>
