<svg width="49" height="49" viewBox="0 0 49 49" fill="none" xmlns="http://www.w3.org/2000/svg">
<circle cx="24.3972" cy="24.2217" r="23.9042" fill="white"/>
<path d="M24.286 15.4286C17.0722 9.70995 8.82778 18.3891 5.60732 23.4435H14.6246C16.743 21.7683 21.9482 21.3014 24.286 21.2773V15.4286Z" fill="black"/>
<path d="M24.286 15.4286C31.5427 9.70995 39.8362 18.3891 43.0758 23.4435H34.0049C31.8739 21.7683 26.6377 21.3014 24.286 21.2773V15.4286Z" fill="black"/>
<path d="M24.6195 34.8875C14.4221 35.1754 7.69579 27.3781 5.60732 23.4435H14.4653C18.0373 25.6891 22.7231 26.1065 24.6195 26.0346V34.8875Z" fill="black"/>
<path d="M24.1748 34.7763C34.3723 35.0642 41.0985 27.2669 43.187 23.3323H34.3291C30.7571 25.5779 26.0712 25.9954 24.1748 25.9234V34.7763Z" fill="black"/>
</svg>
