<svg width="49" height="49" viewBox="0 0 49 49" fill="none" xmlns="http://www.w3.org/2000/svg">
<circle cx="24.6986" cy="24.2217" r="23.9042" fill="white"/>
<path d="M6.85798 18.4463C7.56644 23.8927 12.2514 27.7731 17.3222 27.1135C22.393 26.4539 23.2987 22.1705 22.5902 16.7241C21.8817 11.2777 19.8274 6.73084 14.7566 7.39044C9.68587 8.05004 6.14952 12.9999 6.85798 18.4463Z" fill="black"/>
<ellipse rx="5.45833" ry="5.67887" transform="matrix(-0.991646 0.128992 0.128992 0.991646 16.8462 37.2517)" fill="black"/>
<path d="M22.1314 23.5772L7.02016 19.6931L11.5302 38.414L21.9446 35.2785C21.1209 30.5484 18.796 29.0003 22.1314 23.5772Z" fill="black"/>
<path d="M41.536 16.8687C41.403 22.3593 37.1511 26.71 32.0391 26.5861C26.9271 26.4623 25.5769 22.2975 25.71 16.8069C25.843 11.3162 27.4089 6.57885 32.5208 6.70271C37.6328 6.82657 41.6691 11.378 41.536 16.8687Z" fill="black"/>
<ellipse cx="33.5763" cy="36.6184" rx="5.45833" ry="5.67887" transform="rotate(1.38796 33.5763 36.6184)" fill="black"/>
<path d="M26.8853 23.5739L41.5056 18.1257L38.9849 37.2165L28.435 34.8148C28.7579 30.0244 30.7714 28.6171 26.8853 23.5739Z" fill="black"/>
</svg>
